# xmcd
#
# Track frame offsets:
#	150
#	14223
#	40258
#	55948
#	73450
#	91702
#	108340
#	120332
#	141962
#	161085
#	181368
#	199750
#	220033
#	234790
#	248130
#	261623
#	277930
#	293620
#	307179
#	329946
#	340966
#
# Disc length: 4757 seconds
#
# Revision: 1
# Processed by: cddbd v1.4PL0 Copyright (c) Steve Scherf et al.
# Submitted via: audiograbber 1.82.01
#
DISCID=48129315
DTITLE=Various Artist - Various Blues Vol 1
DYEAR=1900
DGENRE=Blues
TTITLE0=Classical Gas
TTITLE1=5 ft 2
TTITLE2=Whisker Biscuit Blues
TTITLE3=I'm Gonna Get You
TTITLE4=Roadhouse Blues
TTITLE5=Hot Rod Mama
TTITLE6=Blackies Blues
TTITLE7=Broken Heart Blues
TTITLE8=Freakindoodle Jam 2
TTITLE9=House Of The Rising Sun
TTITLE10=401 Blues
TTITLE11=Jagpaw - Tell Me About The Good Old Days
TTITLE12=Mustang Sally
TTITLE13=Nasty Girl
TTITLE14=Play The Blues For You
TTITLE15=When A Man Loves A Woman
TTITLE16=Mississippi Blue
TTITLE17=Dr. Feelgood
TTITLE18=Once I Had The Blues
TTITLE19=Rumble
TTITLE20=Watson Blues
EXTD=
EXTT0=
EXTT1=
EXTT2=
EXTT3=
EXTT4=
EXTT5=
EXTT6=
EXTT7=
EXTT8=
EXTT9=
EXTT10=
EXTT11=
EXTT12=
EXTT13=
EXTT14=
EXTT15=
EXTT16=
EXTT17=
EXTT18=
EXTT19=
EXTT20=
PLAYORDER=
